<svg xmlns="http://www.w3.org/2000/svg" viewBox="0 0 10 16"><defs><style>.cls-1{fill:#3b19e6;}</style></defs><title>Ресурс 2</title><g id="Слой_2" data-name="Слой 2"><g id="Слой_1-2" data-name="Слой 1"><path class="cls-1" d="M0,4H10a0,0,0,0,1,0,0V15.5a.5.5,0,0,1-.5.5H.5a.5.5,0,0,1-.5-.5V4A0,0,0,0,1,0,4Z"/><path class="cls-1" d="M1,1.5H9a1,1,0,0,1,1,1V3a0,0,0,0,1,0,0H0A0,0,0,0,1,0,3V2.5a1,1,0,0,1,1-1Z"/><path class="cls-1" d="M2.5,0h5A.5.5,0,0,1,8,.5v1a0,0,0,0,1,0,0H2a0,0,0,0,1,0,0V.5A.5.5,0,0,1,2.5,0Z"/></g></g></svg>